<svg width="38" height="30" viewBox="0 0 38 30" fill="none" xmlns="http://www.w3.org/2000/svg">
<path d="M21.7553 30C21.5018 30.0002 21.2512 29.9681 21.0215 29.9059C20.7918 29.8438 20.5886 29.753 20.4263 29.6402L0.396201 15.6485C0.140115 15.4693 0 15.244 0 15.0114C0 14.7788 0.140115 14.5535 0.396201 14.3743L20.4263 0.382561C20.5686 0.277556 20.7457 0.190112 20.9473 0.125389C21.1489 0.0606668 21.3708 0.0199766 21.6 0.00571925C21.8291 -0.00853807 22.0609 0.0039264 22.2816 0.0423773C22.5023 0.0808282 22.7075 0.144487 22.885 0.229597C23.0626 0.314707 23.2089 0.419544 23.3153 0.537924C23.4217 0.656303 23.4861 0.785827 23.5047 0.918852C23.5233 1.05188 23.4957 1.18571 23.4235 1.31245C23.3513 1.4392 23.236 1.55628 23.0844 1.65681L3.969 15.0089L23.0844 28.361C23.2944 28.507 23.4282 28.6847 23.4701 28.8732C23.5119 29.0618 23.46 29.2533 23.3205 29.4253C23.181 29.5974 22.9597 29.7428 22.6824 29.8446C22.4052 29.9464 22.0836 30.0003 21.7553 30Z" fill="#956E2F"/>
<path d="M36.245 30C35.9915 30.0002 35.7409 29.9681 35.5112 29.9059C35.2815 29.8438 35.0783 29.753 34.916 29.6402L14.8859 15.6485C14.6298 15.4693 14.4897 15.244 14.4897 15.0114C14.4897 14.7788 14.6298 14.5535 14.8859 14.3743L34.916 0.382561C35.0583 0.277556 35.2354 0.190112 35.437 0.125389C35.6386 0.0606668 35.8605 0.0199766 36.0896 0.00571925C36.3188 -0.00853807 36.5506 0.0039264 36.7713 0.0423773C36.992 0.0808282 37.1972 0.144487 37.3747 0.229597C37.5523 0.314707 37.6986 0.419544 37.805 0.537924C37.9114 0.656303 37.9758 0.785827 37.9944 0.918852C38.013 1.05188 37.9854 1.18571 37.9132 1.31245C37.841 1.4392 37.7257 1.55628 37.574 1.65681L18.4501 15.0089L37.574 28.361C37.7841 28.507 37.9179 28.6847 37.9598 28.8732C38.0016 29.0618 37.9497 29.2533 37.8102 29.4253C37.6707 29.5974 37.4493 29.7428 37.1721 29.8446C36.8949 29.9464 36.5733 30.0003 36.245 30Z" fill="#956E2F"/>
</svg>
