<!-- icon666.com - MILLIONS vector ICONS FREE --><svg version="1.1" id="Capa_1" xmlns="http://www.w3.org/2000/svg" xmlns:xlink="http://www.w3.org/1999/xlink" x="0px" y="0px" viewBox="0 0 462.765 462.765" style="enable-background:new 0 0 462.765 462.765;" xml:space="preserve"><g><g><path d="M402.189,70.562L383.213,3.581C382.612,1.463,380.678,0,378.476,0H84.289c-2.202,0-4.137,1.463-4.737,3.581L60.576,70.562 c-0.421,1.485-0.121,3.081,0.81,4.312c0.931,1.231,2.384,1.954,3.927,1.954h19.596l26.824,381.361 c0.181,2.579,2.326,4.578,4.911,4.578h229.479c2.585,0,4.73-1.999,4.911-4.578l26.824-381.361h19.596 c1.543,0,2.996-0.723,3.927-1.954C402.311,73.642,402.611,72.046,402.189,70.562z M341.533,452.919h-220.3l-9.263-131.691h238.826 L341.533,452.919z M351.488,311.39c-0.028,0-0.053-0.008-0.081-0.008h-240.13l-10.871-154.548h261.952L351.488,311.39z M363.052,146.987H99.714l-4.935-70.161h273.208L363.052,146.987z M373.268,66.981H89.497H71.824L88.012,9.846h286.742 l16.188,57.135H373.268z" fill="#000000" style="fill: rgb(20, 22, 21);"></path></g></g><g><g><path d="M231.044,183.327c-28.001,0-50.782,22.78-50.782,50.781c0,28.001,22.781,50.781,50.782,50.781 c28.001,0,50.781-22.78,50.781-50.781C281.825,206.107,259.045,183.327,231.044,183.327z M231.044,275.042 c-22.572,0-40.936-18.363-40.936-40.935c0-22.571,18.363-40.935,40.936-40.935c22.571,0,40.935,18.363,40.935,40.935 C271.979,256.679,253.615,275.042,231.044,275.042z" fill="#000000" style="fill: rgb(20, 22, 21);"></path></g></g><g><g><path d="M239.081,208.785c-2.476-1.125-5.393-0.03-6.518,2.444c-0.471,1.036-11.567,25.533-15.036,40.561 c-0.612,2.649,1.04,5.292,3.69,5.904c0.372,0.086,0.744,0.127,1.112,0.127c2.24,0,4.266-1.54,4.792-3.817 c3.246-14.063,14.294-38.455,14.405-38.7C242.651,212.828,241.557,209.91,239.081,208.785z" fill="#000000" style="fill: rgb(20, 22, 21);"></path></g></g></svg>