<svg width="84" height="56" viewBox="0 0 84 56" fill="none" xmlns="http://www.w3.org/2000/svg">
<path d="M80.72 11.42C77.16 14.38 72.64 16 68 16C59.1 16 51.2 10.02 48.78 1.46L48.36 0H33.64L33.22 1.46C30.8 10.02 22.9 16 14 16C10.12 16 6.36 14.88 3.1 12.76L0 10.74V46H0.46C3.68 52.86 23.48 56 42 56C60.52 56 80.3 52.86 83.54 46H84V8.72L80.72 11.42ZM42 52C22.62 52 10.22 48.72 5.82 46H78.18C73.78 48.72 61.38 52 42 52ZM80 42H4V17.82C7.12 19.26 10.52 20 14 20C24.16 20 33.26 13.5 36.62 4H45.4C48.76 13.5 57.84 20 68.02 20C72.24 20 76.4 18.88 80.02 16.78V42H80Z" fill="#956E2F"/>
</svg>
