<!-- icon666.com - MILLIONS vector ICONS FREE --><svg id="Layer_1" enable-background="new 0 0 48 48" viewBox="0 0 48 48" xmlns="http://www.w3.org/2000/svg"><path d="m43.36 15.71c-1.78 1.48-4.04 2.29-6.36 2.29-4.45 0-8.4-2.99-9.61-7.27l-.21-.73h-7.36l-.21.73c-1.21 4.28-5.16 7.27-9.61 7.27-1.94 0-3.82-.56-5.45-1.62l-1.55-1.01v17.63h.23c1.61 3.43 11.51 5 20.77 5s19.15-1.57 20.77-5h.23v-18.64zm-19.36 20.29c-9.69 0-15.89-1.64-18.09-3h36.18c-2.2 1.36-8.4 3-18.09 3zm19-5h-38v-12.09c1.56.72 3.26 1.09 5 1.09 5.08 0 9.63-3.25 11.31-8h4.39c1.68 4.75 6.22 8 11.31 8 2.11 0 4.19-.56 6-1.61v12.61z"></path></svg>